<?xml version="1.0" standalone="no"?><!DOCTYPE svg PUBLIC "-//W3C//DTD SVG 1.1//EN" "http://www.w3.org/Graphics/SVG/1.1/DTD/svg11.dtd"><svg t="1635990666086" class="icon" viewBox="0 0 1026 1024" version="1.1" xmlns="http://www.w3.org/2000/svg" p-id="4612" xmlns:xlink="http://www.w3.org/1999/xlink" width="200.390625" height="200"><defs><style type="text/css"></style></defs><path d="M32.971319 1.033906v1021.930192" p-id="4613"></path><path d="M64.906637 1.033906v1021.930192" p-id="4614"></path><path d="M96.841956 1.033906v1021.930192" p-id="4615"></path><path d="M128.777274 1.033906v1021.930192" p-id="4616"></path><path d="M160.712593 1.033906v1021.930192" p-id="4617"></path><path d="M192.647911 1.033906v1021.930192" p-id="4618"></path><path d="M224.58323 1.033906v1021.930192" p-id="4619"></path><path d="M256.518548 1.033906v1021.930192" p-id="4620"></path><path d="M288.453867 1.033906v1021.930192" p-id="4621"></path><path d="M320.389185 1.033906v1021.930192" p-id="4622"></path><path d="M352.324504 1.033906v1021.930192" p-id="4623"></path><path d="M384.259822 1.033906v1021.930192" p-id="4624"></path><path d="M416.195141 1.033906v1021.930192" p-id="4625"></path><path d="M448.130459 1.033906v1021.930192" p-id="4626"></path><path d="M480.065778 1.033906v1021.930192" p-id="4627"></path><path d="M512.001096 1.033906v1021.930192" p-id="4628"></path><path d="M543.936415 1.033906v1021.930192" p-id="4629"></path><path d="M575.871733 1.033906v1021.930192" p-id="4630"></path><path d="M607.807052 1.033906v1021.930192" p-id="4631"></path><path d="M639.74237 1.033906v1021.930192" p-id="4632"></path><path d="M671.677689 1.033906v1021.930192" p-id="4633"></path><path d="M703.613007 1.033906v1021.930192" p-id="4634"></path><path d="M735.548326 1.033906v1021.930192" p-id="4635"></path><path d="M767.483644 1.033906v1021.930192" p-id="4636"></path><path d="M799.418963 1.033906v1021.930192" p-id="4637"></path><path d="M831.354281 1.033906v1021.930192" p-id="4638"></path><path d="M863.2896 1.033906v1021.930192" p-id="4639"></path><path d="M895.224918 1.033906v1021.930192" p-id="4640"></path><path d="M927.160237 1.033906v1021.930192" p-id="4641"></path><path d="M959.095555 1.033906v1021.930192" p-id="4642"></path><path d="M991.030874 1.033906v1021.930192M1.036 32.969224h1021.930192" p-id="4643"></path><path d="M1.036 64.904543h1021.930192" p-id="4644"></path><path d="M1.036 96.839861h1021.930192" p-id="4645"></path><path d="M1.036 128.77518h1021.930192" p-id="4646"></path><path d="M1.036 160.710498h1021.930192" p-id="4647"></path><path d="M1.036 192.645817h1021.930192" p-id="4648"></path><path d="M1.036 224.581135h1021.930192" p-id="4649"></path><path d="M1.036 256.516454h1021.930192" p-id="4650"></path><path d="M1.036 288.451772h1021.930192" p-id="4651"></path><path d="M1.036 320.387091h1021.930192" p-id="4652"></path><path d="M1.036 352.322409h1021.930192" p-id="4653"></path><path d="M1.036 384.257728h1021.930192" p-id="4654"></path><path d="M1.036 416.193047h1021.930192" p-id="4655"></path><path d="M1.036 448.128365h1021.930192" p-id="4656"></path><path d="M1.036 480.063684h1021.930192" p-id="4657"></path><path d="M1.036 511.999002h1021.930192" p-id="4658"></path><path d="M1.036 543.934321h1021.930192" p-id="4659"></path><path d="M1.036 575.869639h1021.930192" p-id="4660"></path><path d="M1.036 607.804958h1021.930192" p-id="4661"></path><path d="M1.036 639.740276h1021.930192" p-id="4662"></path><path d="M1.036 671.675595h1021.930192" p-id="4663"></path><path d="M1.036 703.610913h1021.930192" p-id="4664"></path><path d="M1.036 735.546232h1021.930192" p-id="4665"></path><path d="M1.036 767.48155h1021.930192" p-id="4666"></path><path d="M1.036 799.416869h1021.930192" p-id="4667"></path><path d="M1.036 831.352187h1021.930192" p-id="4668"></path><path d="M1.036 863.287506h1021.930192" p-id="4669"></path><path d="M1.036 895.222824h1021.930192" p-id="4670"></path><path d="M1.036 927.158143h1021.930192" p-id="4671"></path><path d="M1.036 959.093461h1021.930192" p-id="4672"></path><path d="M1.036 991.02878h1021.930192" p-id="4673"></path><path d="M915.795255 818.951304c0 53.487667-43.318264 96.841857-96.841857 96.841857H205.627622c-53.487667 0-96.841857-43.350199-96.841857-96.841857V205.625528c0-53.487667 43.350199-96.841857 96.841857-96.841857h613.325776c53.519602 0 96.841857 43.350199 96.841857 96.841857v613.325776zM0.002094 776.760756h161.403096v59.236024H0.002094v-59.236024z m0-117.240542h161.403096v59.236024H0.002094V659.520214z m0-117.308405h161.403096v59.236024H0.002094v-59.236024z m0-117.274473h161.403096v59.236024H0.002094v-59.236024z m0-117.274473h161.403096v59.236023H0.002094v-59.236023z m0-117.27647h161.403096v59.236024H0.002094V190.386393z m862.596904 585.50213h161.403096v59.202092h-161.403096v-59.202092z m0-117.272478h161.403096v59.202093h-161.403096v-59.202093z m0-117.306408h161.403096v59.236023h-161.403096v-59.236023z m0-117.242539h161.403096v59.236024h-161.403096v-59.236024z m0-117.308404h161.403096v59.267959h-161.403096v-59.267959z m0-117.27647h161.403096v59.236024h-161.403096V189.482224zM775.894609 0h59.202092v161.403096h-59.202092V0z m-117.27647 0h59.202093v161.403096h-59.202093V0z m-117.272477 0h59.202093v161.403096h-59.202093V0z m-117.276469 0h59.202092v161.403096h-59.202092V0z m-117.306409 0h59.236024v161.403096h-59.236024V0z m-117.274474 0h59.236024v161.403096H189.48831V0z m586.406299 862.594908h59.202092v161.403096h-59.202092v-161.403096z m-117.27647 0h59.202093v161.403096h-59.202093v-161.403096z m-117.306408 0h59.236024v161.403096h-59.236024v-161.403096z m-117.242538 0h59.202092v161.403096h-59.202092v-161.403096z m-117.306409 0h59.236024v161.403096h-59.236024v-161.403096z m-117.274474 0h59.236024v161.403096H189.48831v-161.403096z" p-id="4674"></path></svg>